# Blender 4.4.0
# www.blender.org
mtllib Curb.mtl
o concrete_barrier_simple
v -23.618851 -0.205350 42.973934
v 8.464900 -0.205350 42.973934
v -23.618851 -0.205350 39.370098
v 8.464900 -0.205350 39.370098
v -23.618851 -0.205356 -39.370098
v 8.464900 -0.205356 -39.370098
v -23.618851 -0.205356 -43.065567
v 8.464900 -0.205356 -43.065567
v -23.091848 3.855056 -39.370098
v -23.091852 3.855045 39.370098
v -23.091852 3.855044 42.973934
v -23.091848 3.855056 -43.065567
v 2.692394 3.288531 42.973934
v 0.926459 4.477111 42.973934
v 1.728224 3.762174 42.973934
v 2.692394 3.288531 39.370094
v 0.926459 4.477110 39.370094
v 1.728224 3.762174 39.370094
v 2.692395 3.288528 -39.370102
v 0.926459 4.477104 -39.370102
v 1.728224 3.762168 -39.370102
v 0.926460 4.477103 -43.065567
v 2.692395 3.288527 -43.065567
v 1.728225 3.762168 -43.065567
v 8.300269 2.235579 -39.370098
v 6.936299 3.067191 -39.370098
v 7.706839 2.796629 -39.370098
v 6.936298 3.067191 -43.065567
v 8.300268 2.235580 -43.065567
v 7.706838 2.796629 -43.065567
v 8.300279 2.235569 42.973934
v 6.936308 3.067183 42.973934
v 7.706848 2.796619 42.973934
v 8.300278 2.235569 39.370098
v 6.936307 3.067183 39.370098
v 7.706847 2.796619 39.370098
v -21.451956 7.774465 42.973934
v -22.899035 6.658570 42.973934
v -22.338877 7.428388 42.973934
v -0.578898 7.011868 42.973934
v -2.268233 7.927489 42.973934
v -1.310358 7.678549 42.973934
v -21.451956 7.774465 39.370094
v -22.899035 6.658569 39.370094
v -22.338877 7.428387 39.370094
v -0.578898 7.011868 39.370094
v -2.268233 7.927488 39.370094
v -1.310358 7.678548 39.370094
v -21.451956 7.774459 -39.370102
v -22.899036 6.658564 -39.370102
v -22.338875 7.428381 -39.370102
v -0.578898 7.011862 -39.370102
v -2.268233 7.927483 -39.370102
v -1.310358 7.678543 -39.370102
v -22.899036 6.658564 -43.065567
v -21.451956 7.774458 -43.065567
v -22.338875 7.428381 -43.065567
v -2.268233 7.927482 -43.065567
v -0.578898 7.011861 -43.065567
v -1.310358 7.678542 -43.065567
v -4.283120 7.991598 42.973934
v -4.283119 7.991598 39.370094
v -4.283119 7.991592 -39.370102
v -4.283119 7.991591 -43.065567
v -23.618851 -26.785778 42.973934
v 8.464900 -26.785778 42.973934
v 8.464900 -26.785778 39.370098
v 8.464900 -26.785786 -39.370098
v -23.618851 -26.785786 -43.065567
v 8.464900 -26.785786 -43.065567
vn -0.9976 0.0686 -0.0000
vn -0.9973 0.0690 0.0262
vn -0.9398 0.3418 -0.0000
vn 0.9994 0.0337 -0.0000
vn 0.9046 0.4263 -0.0000
vn -0.9989 -0.0201 0.0425
vn 0.1937 0.9811 -0.0000
vn 0.2516 0.9678 -0.0000
vn 0.7752 0.6317 -0.0000
vn 0.7717 0.6360 -0.0000
vn 0.0096 1.0000 -0.0000
vn 0.1425 0.9898 -0.0000
vn 0.5584 0.8296 -0.0000
vn 0.5206 0.8538 -0.0000
vn -0.1912 0.9816 -0.0000
vn -0.6107 0.7919 -0.0000
vn 0.4765 0.8792 -0.0000
vn -0.0472 -0.0801 0.9957
vn -0.0000 -0.0000 1.0000
vn -0.0238 -0.0108 0.9997
vn -0.0607 0.0773 -0.9952
vn -0.0000 -0.0000 -1.0000
vn 0.0759 -0.1283 -0.9888
vn -0.5834 -0.1235 -0.8027
vn -0.6837 -0.1212 0.7196
vn -0.7196 0.1212 0.6837
vn -0.8027 0.1235 -0.5834
vn -0.9917 0.1287 -0.0000
vn -0.9929 0.0859 0.0826
vn -0.9880 0.1546 -0.0004
vn -0.9924 0.0860 -0.0886
vn -0.9704 0.2060 -0.1262
vn 1.0000 -0.0000 -0.0000
vt 0.906322 0.958049
vt 0.906322 0.999929
vt 0.840668 0.999929
vt 0.840669 0.958049
vt 0.906322 0.043016
vt 0.840669 0.043016
vt 0.000141 0.999929
vt 0.000141 0.958049
vt 0.056485 0.958049
vt 0.056485 0.999929
vt 0.906322 0.000071
vt 0.840669 0.000071
vt 0.094102 0.958049
vt 0.094103 0.043016
vt 0.191977 0.043016
vt 0.191976 0.958049
vt 0.094102 0.999929
vt 0.191976 0.999929
vt 0.094103 0.000071
vt 0.191977 0.000071
vt 0.000141 0.043016
vt 0.056486 0.043016
vt 0.309354 0.958049
vt 0.241457 0.958049
vt 0.241457 0.043016
vt 0.309354 0.043016
vt 0.309354 0.999929
vt 0.241457 0.999929
vt 0.401370 0.043016
vt 0.354941 0.043016
vt 0.354941 0.000071
vt 0.401370 0.000071
vt 0.241457 0.000071
vt 0.309354 0.000071
vt 0.216717 0.958049
vt 0.216717 0.999929
vt 0.216717 0.043016
vt 0.216717 0.000071
vt 0.401369 0.958049
vt 0.354941 0.958049
vt 0.075294 0.958049
vt 0.075294 0.999929
vt 0.075294 0.043016
vt 0.056486 0.000071
vt 0.075294 0.000071
vt 0.000141 0.000071
vt 0.796815 0.999929
vt 0.796815 0.958049
vt 0.818742 0.958049
vt 0.818742 0.999929
vt 0.332147 0.958049
vt 0.332147 0.999929
vt 0.354941 0.999929
vt 0.796816 0.043016
vt 0.818742 0.043016
vt 0.332148 0.043016
vt 0.796816 0.000071
vt 0.818742 0.000071
vt 0.332148 0.000071
vt 0.401369 0.999929
vt 0.255738 0.999899
vt 0.255738 0.000101
vt 0.331802 0.005231
vt 0.349285 0.023723
vt 0.357717 0.047735
vt 0.364614 0.179984
vt 0.379374 0.210030
vt 0.401653 0.235014
vt 0.480641 0.281925
vt 0.501417 0.304718
vt 0.509174 0.334568
vt 0.511172 0.397356
vt 0.504406 0.932374
vt 0.493621 0.960012
vt 0.469632 0.977468
vt 0.382268 0.993554
vt 0.126632 0.006446
vt 0.213995 0.022532
vt 0.237985 0.039988
vt 0.248769 0.067626
vt 0.255535 0.602643
vt 0.253538 0.665432
vt 0.245780 0.695281
vt 0.225005 0.718075
vt 0.146016 0.764985
vt 0.123738 0.789970
vt 0.108978 0.820015
vt 0.102081 0.952264
vt 0.093649 0.976276
vt 0.076166 0.994769
vt 0.000101 0.999899
vt 0.000101 0.000101
vt 0.308954 0.000056
vt 0.308954 0.999944
vt 0.000056 0.999944
vt 0.000056 0.000056
vt 0.047608 0.042971
vt 0.047608 0.999978
vt 0.000022 0.999978
vt 0.000022 0.000022
vt 0.047608 0.000022
vt 0.828410 0.000091
vt 0.828410 0.999909
vt 0.000091 0.999909
vt 0.000091 0.000091
vt 0.000091 0.999909
vt 0.000091 0.000091
vt 0.828410 0.000091
vt 0.828410 0.999909
s 1
usemtl Material__25
f 10/1/1 11/2/2 38/3/3 44/4/3
f 9/5/1 10/1/1 44/4/3 50/6/3
f 2/7/4 4/8/4 34/9/5 31/10/5
f 12/11/6 9/5/1 50/6/3 55/12/3
f 35/13/7 26/14/7 19/15/8 16/16/8
f 32/17/7 35/13/7 16/16/8 13/18/8
f 26/14/7 28/19/7 23/20/8 19/15/8
f 4/8/4 6/21/4 25/22/5 34/9/5
f 46/23/9 17/24/10 20/25/10 52/26/9
f 40/27/9 14/28/10 17/24/10 46/23/9
f 63/29/11 53/30/12 58/31/12 64/32/11
f 52/26/9 20/25/10 22/33/10 59/34/9
f 13/18/8 16/16/8 18/35/13 15/36/13
f 15/36/13 18/35/13 17/24/10 14/28/10
f 16/16/8 19/15/8 21/37/13 18/35/13
f 18/35/13 21/37/13 20/25/10 17/24/10
f 19/15/8 23/20/8 24/38/13 21/37/13
f 21/37/13 24/38/13 22/33/10 20/25/10
f 62/39/11 47/40/12 53/30/12 63/29/11
f 31/10/5 34/9/5 36/41/14 33/42/14
f 33/42/14 36/41/14 35/13/7 32/17/7
f 26/14/7 35/13/7 36/41/14 27/43/14
f 27/43/14 36/41/14 34/9/5 25/22/5
f 25/22/5 29/44/5 30/45/14 27/43/14
f 27/43/14 30/45/14 28/19/7 26/14/7
f 6/21/4 8/46/4 29/44/5 25/22/5
f 37/47/15 43/48/15 45/49/16 39/50/16
f 39/50/16 45/49/16 44/4/3 38/3/3
f 40/27/9 46/23/9 48/51/17 42/52/17
f 42/52/17 48/51/17 47/40/12 41/53/12
f 43/48/15 49/54/15 51/55/16 45/49/16
f 45/49/16 51/55/16 50/6/3 44/4/3
f 46/23/9 52/26/9 54/56/17 48/51/17
f 48/51/17 54/56/17 53/30/12 47/40/12
f 49/54/15 56/57/15 57/58/16 51/55/16
f 51/55/16 57/58/16 55/12/3 50/6/3
f 52/26/9 59/34/9 60/59/17 54/56/17
f 54/56/17 60/59/17 58/31/12 53/30/12
f 61/60/11 41/53/12 47/40/12 62/39/11
f 37/47/15 61/60/11 62/39/11 43/48/15
f 43/48/15 62/39/11 63/29/11 49/54/15
f 49/54/15 63/29/11 64/32/11 56/57/15
f 1/61/18 2/62/19 31/63/19 33/64/19 32/65/19 13/66/19 15/67/19 14/68/19 40/69/19 42/70/19 41/71/19 61/72/19 37/73/19 39/74/19 38/75/19 11/76/20
f 12/77/21 55/78/22 57/79/22 56/80/22 64/81/22 58/82/22 60/83/22 59/84/22 22/85/22 24/86/22 23/87/22 28/88/22 30/89/22 29/90/22 8/91/22 7/92/23
f 69/93/24 65/94/25 1/95/26 7/96/27
f 5/97/28 1/98/29 11/99/30 12/100/31 7/101/32
f 2/102/19 1/103/26 65/104/25 66/105/19
f 8/46/4 6/21/4 68/21/33 70/46/33
f 4/8/4 2/7/4 66/7/33 67/8/33
f 7/106/27 8/107/22 70/108/22 69/109/24
f 6/21/4 4/8/4 67/8/33 68/21/33
l 1 3
