# Blender 4.4.0
# www.blender.org
mtllib Curbgrass.mtl
o concrete_barrier_simple
v -23.618851 -0.205350 42.973934
v 8.464900 -0.205350 42.973934
v -23.618851 -0.205350 39.370098
v 8.464900 -0.205350 39.370098
v -23.618851 -0.205356 -39.370098
v 8.464900 -0.205356 -39.370098
v -23.618851 -0.205356 -43.065567
v 8.464900 -0.205356 -43.065567
v -23.091848 3.855056 -39.370098
v -23.091852 3.855045 39.370098
v -23.091852 3.855044 42.973934
v -23.091848 3.855056 -43.065567
v 2.692394 3.288531 42.973934
v 0.926459 4.477111 42.973934
v 1.728224 3.762174 42.973934
v 2.692394 3.288531 39.370094
v 0.926459 4.477110 39.370094
v 1.728224 3.762174 39.370094
v 2.692395 3.288528 -39.370102
v 0.926459 4.477104 -39.370102
v 1.728224 3.762168 -39.370102
v 0.926460 4.477103 -43.065567
v 2.692395 3.288527 -43.065567
v 1.728225 3.762168 -43.065567
v 8.300269 2.235579 -39.370098
v 6.936299 3.067191 -39.370098
v 7.706839 2.796629 -39.370098
v 6.936298 3.067191 -43.065567
v 8.300268 2.235580 -43.065567
v 7.706838 2.796629 -43.065567
v 8.300279 2.235569 42.973934
v 6.936308 3.067183 42.973934
v 7.706848 2.796619 42.973934
v 8.300278 2.235569 39.370098
v 6.936307 3.067183 39.370098
v 7.706847 2.796619 39.370098
v -21.451956 7.774465 42.973934
v -22.899035 6.658570 42.973934
v -22.338877 7.428388 42.973934
v -0.578898 7.011868 42.973934
v -2.268233 7.927489 42.973934
v -1.310358 7.678549 42.973934
v -21.451956 7.774465 39.370094
v -22.899035 6.658569 39.370094
v -22.338877 7.428387 39.370094
v -0.578898 7.011868 39.370094
v -2.268233 7.927488 39.370094
v -1.310358 7.678548 39.370094
v -21.451956 7.774459 -39.370102
v -22.899036 6.658564 -39.370102
v -22.338875 7.428381 -39.370102
v -0.578898 7.011862 -39.370102
v -2.268233 7.927483 -39.370102
v -1.310358 7.678543 -39.370102
v -22.899036 6.658564 -43.065567
v -21.451956 7.774458 -43.065567
v -22.338875 7.428381 -43.065567
v -2.268233 7.927482 -43.065567
v -0.578898 7.011861 -43.065567
v -1.310358 7.678542 -43.065567
v -4.283120 7.991598 42.973934
v -4.283119 7.991598 39.370094
v -4.283119 7.991592 -39.370102
v -4.283119 7.991591 -43.065567
v -23.618851 -31.947481 -43.065567
v -57.867420 -4.044321 -43.065567
v -23.618851 -31.947481 42.973934
v -57.867420 -4.044314 42.973934
v -57.340412 3.855056 -39.370098
v -57.340412 3.855045 39.370098
v -57.340412 3.855044 42.973934
v -57.340412 3.855056 -43.065567
v -117.021439 -13.410709 -39.370098
v -117.021439 -13.410709 -43.065567
v -117.021439 -13.410704 39.370098
v -117.021439 -13.410704 42.973934
v -94.771248 -0.801866 -39.370098
v -94.771248 -0.801876 39.370098
v -94.771248 -0.801878 42.973934
v -94.771248 -0.801865 -43.065567
v -57.867420 -31.947481 -43.065563
v -57.867420 -31.947481 42.973938
v -117.021439 -27.919891 -43.065563
v -117.021439 -27.919891 42.973938
v -23.618851 -26.785778 42.973934
v 8.464900 -26.785778 42.973934
v 8.464900 -26.785778 39.370098
v 8.464900 -26.785786 -39.370098
v -23.618851 -26.785786 -43.065567
v 8.464900 -26.785786 -43.065567
vn -0.9976 0.0686 -0.0000
vn -0.9973 0.0690 0.0262
vn -0.9398 0.3418 -0.0000
vn 0.9994 0.0337 -0.0000
vn 0.9046 0.4263 -0.0000
vn -0.9989 -0.0202 0.0425
vn 0.1937 0.9811 -0.0000
vn 0.2516 0.9678 -0.0000
vn -0.0000 1.0000 -0.0000
vn -0.0618 0.9981 -0.0000
vn -0.0425 0.9952 -0.0886
vn -0.1353 0.9884 -0.0687
vn -0.1167 -0.0929 -0.9888
vn 0.0099 0.1488 -0.9888
vn 0.1153 -0.0946 -0.9888
vn 0.0726 -0.1303 -0.9888
vn 0.7752 0.6317 -0.0000
vn 0.7717 0.6360 -0.0000
vn 0.0096 1.0000 -0.0000
vn 0.1425 0.9898 -0.0000
vn 0.5584 0.8296 -0.0000
vn 0.5206 0.8538 -0.0000
vn -0.1912 0.9816 -0.0000
vn -0.6107 0.7919 -0.0000
vn 0.4765 0.8792 -0.0000
vn -0.0472 -0.0801 0.9957
vn -0.0000 -0.0000 1.0000
vn -0.0238 -0.0108 0.9997
vn -0.0607 0.0773 -0.9952
vn -0.0000 -0.0000 -1.0000
vn 0.0759 -0.1284 -0.9888
vn 0.0877 -0.0444 -0.9952
vn 0.0559 0.0809 -0.9952
vn -0.0482 0.9986 0.0231
vn -0.3143 0.9493 -0.0000
vn -0.3004 0.9535 0.0244
vn 0.0921 0.0123 0.9957
vn 0.0007 0.0262 0.9997
vn -0.0262 0.0007 0.9997
vn 0.0062 0.0928 0.9957
vn 0.0262 0.9997 -0.0004
vn 0.0840 -0.0510 -0.9952
vn 0.1043 0.1067 -0.9888
vn 0.0439 0.0880 -0.9952
vn 0.1262 0.0795 -0.9888
vn -0.4184 0.8995 -0.1262
vn -0.4930 0.8700 -0.0000
vn -0.3865 0.9195 -0.0725
vn -0.5279 0.8453 0.0826
vn 0.0163 -0.0915 0.9957
vn 0.0826 -0.0426 0.9957
vn -0.0900 0.0232 0.9957
vn -0.0458 -0.0809 0.9957
vn -0.0020 0.0261 0.9997
vn -0.0208 0.0158 0.9997
vn -0.0826 0.0426 0.9957
vn -0.0426 -0.0826 0.9957
vn 1.0000 -0.0000 -0.0000
vn -0.1262 -0.0795 -0.9888
vn 0.0795 -0.1262 -0.9888
vt 0.906322 0.958049
vt 0.906322 0.999929
vt 0.840668 0.999929
vt 0.840669 0.958049
vt 0.906322 0.043016
vt 0.840669 0.043016
vt 0.000141 0.999929
vt 0.000141 0.958049
vt 0.056485 0.958049
vt 0.056485 0.999929
vt 0.906322 0.000071
vt 0.840669 0.000071
vt 0.094102 0.958049
vt 0.094103 0.043016
vt 0.191977 0.043016
vt 0.191976 0.958049
vt 0.094102 0.999929
vt 0.191976 0.999929
vt 0.094103 0.000071
vt 0.191977 0.000071
vt 0.000141 0.043016
vt 0.056486 0.043016
vt 0.000116 0.958058
vt 0.000116 0.043007
vt 0.342526 0.043007
vt 0.342526 0.958058
vt 0.000116 0.000062
vt 0.342526 0.000062
vt 0.155435 0.016260
vt 0.337092 0.618726
vt 0.038293 0.587581
vt 0.000065 0.000065
vt 0.309354 0.958049
vt 0.241457 0.958049
vt 0.241457 0.043016
vt 0.309354 0.043016
vt 0.309354 0.999929
vt 0.241457 0.999929
vt 0.401370 0.043016
vt 0.354941 0.043016
vt 0.354941 0.000071
vt 0.401370 0.000071
vt 0.241457 0.000071
vt 0.309354 0.000071
vt 0.216717 0.958049
vt 0.216717 0.999929
vt 0.216717 0.043016
vt 0.216717 0.000071
vt 0.401369 0.958049
vt 0.354941 0.958049
vt 0.075294 0.958049
vt 0.075294 0.999929
vt 0.075294 0.043016
vt 0.056486 0.000071
vt 0.075294 0.000071
vt 0.000141 0.000071
vt 0.796815 0.999929
vt 0.796815 0.958049
vt 0.818742 0.958049
vt 0.818742 0.999929
vt 0.332147 0.958049
vt 0.332147 0.999929
vt 0.354941 0.999929
vt 0.796816 0.043016
vt 0.818742 0.043016
vt 0.332148 0.043016
vt 0.796816 0.000071
vt 0.818742 0.000071
vt 0.332148 0.000071
vt 0.401369 0.999929
vt 0.255738 0.999899
vt 0.255738 0.000101
vt 0.331802 0.005231
vt 0.349285 0.023723
vt 0.357717 0.047735
vt 0.364614 0.179984
vt 0.379374 0.210030
vt 0.401653 0.235014
vt 0.480641 0.281925
vt 0.501417 0.304718
vt 0.509174 0.334568
vt 0.511172 0.397356
vt 0.504406 0.932374
vt 0.493621 0.960012
vt 0.469632 0.977468
vt 0.382268 0.993554
vt 0.126632 0.006446
vt 0.213995 0.022532
vt 0.237985 0.039988
vt 0.248769 0.067626
vt 0.255535 0.602643
vt 0.253538 0.665432
vt 0.245780 0.695281
vt 0.225005 0.718075
vt 0.146016 0.764985
vt 0.123738 0.789970
vt 0.108978 0.820015
vt 0.102081 0.952264
vt 0.093649 0.976276
vt 0.076166 0.994769
vt 0.000101 0.999899
vt 0.000101 0.000101
vt 0.421094 0.633187
vt 0.405913 0.226424
vt 0.342526 0.999938
vt 0.606339 0.958058
vt 0.606339 0.999938
vt 0.339973 0.010240
vt 0.382865 0.000065
vt 0.421094 0.366813
vt 0.337092 0.381274
vt 0.000116 0.999938
vt 0.382865 0.999935
vt 0.339973 0.989760
vt 0.000065 0.954329
vt 0.717186 0.000062
vt 0.717186 0.043007
vt 0.606339 0.043007
vt 0.606339 0.000062
vt 0.717186 0.958058
vt 0.717186 0.999938
vt 0.038293 0.412419
vt 0.000065 0.045671
vt 0.155436 0.983740
vt 0.000065 0.999935
vt 0.405913 0.773576
vt 0.828410 0.000091
vt 0.828410 0.999909
vt 0.000091 0.999909
vt 0.000091 0.000091
vt 0.000091 0.999909
vt 0.000091 0.000091
vt 0.828410 0.000091
vt 0.828410 0.999909
s 1
usemtl Material__25
f 10/1/1 11/2/2 38/3/3 44/4/3
f 9/5/1 10/1/1 44/4/3 50/6/3
f 2/7/4 4/8/4 34/9/5 31/10/5
f 12/11/6 9/5/1 50/6/3 55/12/3
f 35/13/7 26/14/7 19/15/8 16/16/8
f 32/17/7 35/13/7 16/16/8 13/18/8
f 26/14/7 28/19/7 23/20/8 19/15/8
f 4/8/4 6/21/4 25/22/5 34/9/5
f 46/33/17 17/34/18 20/35/18 52/36/17
f 40/37/17 14/38/18 17/34/18 46/33/17
f 63/39/19 53/40/20 58/41/20 64/42/19
f 52/36/17 20/35/18 22/43/18 59/44/17
f 13/18/8 16/16/8 18/45/21 15/46/21
f 15/46/21 18/45/21 17/34/18 14/38/18
f 16/16/8 19/15/8 21/47/21 18/45/21
f 18/45/21 21/47/21 20/35/18 17/34/18
f 19/15/8 23/20/8 24/48/21 21/47/21
f 21/47/21 24/48/21 22/43/18 20/35/18
f 62/49/19 47/50/20 53/40/20 63/39/19
f 31/10/5 34/9/5 36/51/22 33/52/22
f 33/52/22 36/51/22 35/13/7 32/17/7
f 26/14/7 35/13/7 36/51/22 27/53/22
f 27/53/22 36/51/22 34/9/5 25/22/5
f 25/22/5 29/54/5 30/55/22 27/53/22
f 27/53/22 30/55/22 28/19/7 26/14/7
f 6/21/4 8/56/4 29/54/5 25/22/5
f 37/57/23 43/58/23 45/59/24 39/60/24
f 39/60/24 45/59/24 44/4/3 38/3/3
f 40/37/17 46/33/17 48/61/25 42/62/25
f 42/62/25 48/61/25 47/50/20 41/63/20
f 43/58/23 49/64/23 51/65/24 45/59/24
f 45/59/24 51/65/24 50/6/3 44/4/3
f 46/33/17 52/36/17 54/66/25 48/61/25
f 48/61/25 54/66/25 53/40/20 47/50/20
f 49/64/23 56/67/23 57/68/24 51/65/24
f 51/65/24 57/68/24 55/12/3 50/6/3
f 52/36/17 59/44/17 60/69/25 54/66/25
f 54/66/25 60/69/25 58/41/20 53/40/20
f 61/70/19 41/63/20 47/50/20 62/49/19
f 37/57/23 61/70/19 62/49/19 43/58/23
f 43/58/23 62/49/19 63/39/19 49/64/23
f 49/64/23 63/39/19 64/42/19 56/67/23
f 1/71/26 2/72/27 31/73/27 33/74/27 32/75/27 13/76/27 15/77/27 14/78/27 40/79/27 42/80/27 41/81/27 61/82/27 37/83/27 39/84/27 38/85/27 11/86/28
f 12/87/29 55/88/30 57/89/30 56/90/30 64/91/30 58/92/30 60/93/30 59/94/30 22/95/30 24/96/30 23/97/30 28/98/30 30/99/30 29/100/30 8/101/30 7/102/31
f 2/127/27 1/128/56 85/129/57 86/130/27
f 8/56/4 6/21/4 88/21/58 90/56/58
f 4/8/4 2/7/4 86/7/58 87/8/58
f 7/131/59 8/132/30 90/133/30 89/134/60
f 6/21/4 4/8/4 87/8/58 88/21/58
usemtl Material.001
f 10/23/9 9/24/9 69/25/10 70/26/10
f 9/24/9 12/27/11 72/28/12 69/25/10
f 74/29/13 66/30/14 81/31/15 83/32/16
f 72/103/32 66/30/14 74/29/13 80/104/33
f 71/105/34 70/26/10 78/106/35 79/107/36
f 1/108/37 11/109/38 71/110/39 68/111/40
f 11/112/41 10/23/9 70/26/10 71/105/34
f 12/113/42 7/114/43 66/30/14 72/103/44
f 66/30/14 7/114/43 65/115/45 81/31/15
f 74/116/46 73/117/47 77/118/35 80/119/48
f 73/117/47 75/120/47 78/106/35 77/118/35
f 75/120/47 76/121/49 79/107/36 78/106/35
f 1/108/37 68/111/40 82/122/50 67/123/51
f 68/111/40 76/124/52 84/125/53 82/122/50
f 69/25/10 72/28/12 80/119/48 77/118/35
f 70/26/10 69/25/10 77/118/35 78/106/35
f 68/111/40 71/110/54 79/126/55 76/124/52
l 5 7
l 1 3
