# Blender 4.4.0
# www.blender.org
mtllib yield-sign.mtl
o yield-sign-low
v 0.000000 1.484239 -0.156806
v 0.000000 1.484239 -0.086494
v 0.005138 1.479220 -0.156806
v 0.005138 1.479220 -0.086494
v 0.000000 1.474200 -0.156806
v 0.000000 1.474200 -0.086494
v -0.005138 1.479220 -0.156806
v -0.005138 1.479220 -0.086494
v 0.000000 2.012299 -0.156806
v 0.000000 2.012299 -0.086494
v 0.005138 2.007280 -0.156806
v 0.005138 2.007280 -0.086494
v 0.000000 2.002260 -0.156806
v 0.000000 2.002260 -0.086494
v -0.005138 2.007280 -0.156806
v -0.005138 2.007280 -0.086494
v -0.021000 -0.000000 -0.100089
v -0.021000 -0.000000 -0.150089
v 0.021000 -0.000000 -0.150089
v 0.021000 -0.000000 -0.100089
v 0.037800 -0.000000 -0.100089
v -0.037800 -0.000000 -0.100089
v -0.021000 2.049956 -0.100089
v -0.021000 2.049956 -0.150089
v 0.021000 2.049956 -0.150089
v 0.021000 2.049956 -0.100089
v 0.037800 2.049956 -0.100089
v -0.037800 2.049956 -0.100089
v -0.022814 -0.000000 -0.102279
v -0.022814 -0.000000 -0.151903
v 0.022814 -0.000000 -0.151903
v 0.022814 -0.000000 -0.102279
v 0.037800 -0.000000 -0.102279
v -0.037800 -0.000000 -0.102279
v -0.022814 2.049956 -0.102279
v -0.022814 2.049956 -0.151903
v 0.022814 2.049956 -0.151903
v 0.022814 2.049956 -0.102279
v 0.037800 2.049956 -0.102279
v -0.037800 2.049956 -0.102279
v 0.000000 1.808960 -0.099883
v 0.000000 1.808960 -0.091536
v 0.043222 1.483823 -0.099883
v -0.043222 1.483823 -0.099883
v 0.000000 1.495405 -0.099883
v 0.027750 1.464353 -0.099883
v 0.009562 1.454117 -0.099883
v -0.009562 1.454117 -0.099883
v -0.027751 1.464353 -0.099883
v 0.234884 2.026848 -0.099883
v 0.273936 1.951984 -0.099883
v 0.245348 1.983625 -0.099883
v 0.257108 2.023184 -0.099883
v 0.273334 2.012550 -0.099883
v 0.281974 1.995988 -0.099883
v 0.282181 1.975118 -0.099883
v -0.273936 1.951984 -0.099883
v -0.234884 2.026848 -0.099883
v -0.245348 1.983625 -0.099883
v -0.282181 1.975118 -0.099883
v -0.281974 1.995988 -0.099883
v -0.273334 2.012550 -0.099883
v -0.257108 2.023184 -0.099883
v 0.273936 1.951984 -0.091536
v 0.234884 2.026848 -0.091536
v 0.245348 1.983625 -0.091536
v 0.282181 1.975118 -0.091536
v 0.281974 1.995988 -0.091536
v 0.273334 2.012550 -0.091536
v 0.257108 2.023184 -0.091536
v -0.043222 1.483823 -0.091536
v 0.043222 1.483823 -0.091536
v 0.000000 1.495405 -0.091536
v -0.027751 1.464353 -0.091536
v -0.009562 1.454117 -0.091536
v 0.009562 1.454117 -0.091536
v 0.027750 1.464353 -0.091536
v -0.234884 2.026848 -0.091536
v -0.273936 1.951984 -0.091536
v -0.245348 1.983625 -0.091536
v -0.257108 2.023184 -0.091536
v -0.273334 2.012550 -0.091536
v -0.281974 1.995988 -0.091536
v -0.282181 1.975118 -0.091536
vn -0.6163 -0.3904 -0.6839
vn -0.6628 -0.2803 -0.6943
vn -0.0000 -0.0000 -1.0000
vn -0.0591 0.7222 -0.6892
vn 0.0591 0.7222 0.6892
vn 0.0591 0.7222 -0.6892
vn -0.6628 -0.2803 0.6943
vn 0.6628 -0.2803 -0.6943
vn 0.6163 -0.3904 -0.6839
vn 0.4838 -0.5674 -0.6663
vn 0.1917 -0.7316 -0.6543
vn -0.1917 -0.7316 -0.6542
vn -0.4838 -0.5674 -0.6663
vn 0.2718 0.6972 -0.6634
vn 0.5605 0.5074 -0.6545
vn 0.7303 0.1829 -0.6582
vn 0.7324 -0.1229 -0.6697
vn -0.7324 -0.1229 -0.6697
vn -0.7303 0.1829 -0.6582
vn -0.5605 0.5074 -0.6545
vn -0.2718 0.6972 -0.6634
vn 0.6163 -0.3904 0.6839
vn 0.1917 -0.7316 0.6543
vn -0.1917 -0.7316 0.6543
vn -0.4838 -0.5674 0.6663
vn -0.2718 0.6972 0.6634
vn -0.0591 0.7222 0.6892
vn -0.5605 0.5074 0.6545
vn -0.7303 0.1829 0.6582
vn -0.7324 -0.1229 0.6697
vn 0.7324 -0.1229 0.6697
vn 0.6628 -0.2803 0.6943
vn 0.7303 0.1829 0.6582
vn 0.5605 0.5074 0.6545
vn 0.2718 0.6972 0.6634
vn -0.6163 -0.3904 0.6839
vn 0.4838 -0.5674 0.6663
vn -0.0000 0.8156 -0.5786
vn 0.8174 -0.0000 0.5761
vn 0.8174 -0.0000 -0.5761
vn -0.0000 -0.8156 -0.5786
vn -0.0000 0.8156 0.5786
vn -0.0000 -0.8156 0.5786
vn -0.8174 -0.0000 0.5761
vn -0.8174 -0.0000 -0.5761
vn 0.5774 0.5773 0.5773
vn -0.5773 -0.5774 0.5773
vn 0.5774 -0.5773 0.5774
vn -0.3015 0.9045 0.3015
vn 0.3015 -0.9045 0.3015
vn -0.3015 -0.9045 0.3015
vn 0.5773 0.5774 0.5773
vn -0.5774 -0.5773 0.5774
vn 0.5773 -0.5774 0.5773
vn -0.5774 0.5774 0.5773
vn 0.3015 0.9045 0.3015
vn 0.3015 -0.9045 -0.3015
vn 0.5773 0.5773 -0.5774
vn 0.5774 -0.5773 -0.5773
vn -0.5773 -0.5774 -0.5773
vn 0.5773 0.5774 -0.5773
vn 0.5773 -0.5774 -0.5773
vn -0.5773 -0.5773 -0.5774
vn -0.3015 0.9045 -0.3015
vn -0.3015 -0.9045 -0.3015
vn 0.3015 0.9045 -0.3015
vn -0.5773 0.5774 -0.5774
vn -0.5774 0.5773 -0.5773
vn -0.5774 0.5773 0.5774
vn -0.0000 -0.0000 1.0000
vt 0.112800 0.117600
vt 0.340500 0.005400
vt 0.271000 0.138700
vt 0.649200 0.248700
vt 0.645300 0.028000
vt 0.649200 0.027400
vt 0.394700 0.152400
vt 0.610700 0.265600
vt 0.609000 0.269400
vt 0.377000 0.024400
vt 0.377000 0.252900
vt 0.340500 0.271900
vt 0.112800 0.159700
vt 0.103300 0.152200
vt 0.118400 0.138700
vt 0.098300 0.143300
vt 0.098300 0.134000
vt 0.103300 0.125200
vt 0.375200 0.263700
vt 0.355900 0.258000
vt 0.370000 0.271600
vt 0.362000 0.275800
vt 0.351800 0.275900
vt 0.351800 0.001400
vt 0.355900 0.019300
vt 0.362000 0.001500
vt 0.370000 0.005700
vt 0.375200 0.013600
vt 0.396900 0.110400
vt 0.385100 0.114900
vt 0.394700 0.107100
vt 0.383700 0.125200
vt 0.379800 0.124000
vt 0.383800 0.133100
vt 0.379700 0.134000
vt 0.384900 0.143700
vt 0.388400 0.141100
vt 0.642600 0.258300
vt 0.645000 0.248100
vt 0.646400 0.260200
vt 0.637700 0.265400
vt 0.640500 0.268700
vt 0.630800 0.269300
vt 0.621000 0.273600
vt 0.621600 0.269500
vt 0.605900 0.005600
vt 0.620900 0.006100
vt 0.607400 0.010100
vt 0.620400 0.001400
vt 0.630600 0.006700
vt 0.632100 0.002500
vt 0.637800 0.011000
vt 0.640800 0.007900
vt 0.642800 0.018200
vt 0.646600 0.016500
vt 0.397300 0.148800
vt 0.388100 0.117500
vt 0.631700 0.273300
vt 0.393900 0.387000
vt 0.397400 0.352800
vt 0.397400 0.387000
vt 0.400800 0.387000
vt 0.407400 0.389900
vt 0.403900 0.393300
vt 0.403900 0.389800
vt 0.404300 0.352800
vt 0.407800 0.387000
vt 0.404300 0.387000
vt 0.397300 0.408000
vt 0.393900 0.404600
vt 0.397300 0.404600
vt 0.393900 0.350100
vt 0.397400 0.315900
vt 0.397400 0.350100
vt 0.400800 0.350100
vt 0.397700 0.393300
vt 0.401200 0.389900
vt 0.401200 0.393400
vt 0.404300 0.315900
vt 0.407800 0.350100
vt 0.404300 0.350100
vt 0.403600 0.408000
vt 0.400100 0.404600
vt 0.403600 0.404600
vt 0.095600 0.905700
vt 0.079800 0.001500
vt 0.095600 0.001400
vt 0.057700 0.905800
vt 0.039200 0.001500
vt 0.057700 0.001500
vt 0.017200 0.905800
vt 0.001400 0.001600
vt 0.017200 0.001500
vt 0.079800 0.905800
vt 0.039200 0.905800
vt 0.666000 0.646800
vt 0.677300 0.001500
vt 0.677300 0.646900
vt 0.998600 0.955000
vt 0.001400 0.932800
vt 0.998600 0.932800
vt 0.652000 0.646800
vt 0.663200 0.001500
vt 0.663200 0.646900
vt 0.001400 0.908700
vt 0.998600 0.908700
vt 0.998600 0.979100
vt 0.001400 0.955000
vt 0.411500 0.371800
vt 0.410600 0.393100
vt 0.410600 0.372700
vt 0.419100 0.313100
vt 0.418000 0.305800
vt 0.419100 0.304900
vt 0.384000 0.276400
vt 0.379700 0.523100
vt 0.379700 0.276300
vt 0.394700 0.284500
vt 0.418000 0.283600
vt 0.419100 0.284500
vt 0.411500 0.340200
vt 0.410600 0.316900
vt 0.411500 0.315900
vt 0.419100 0.276300
vt 0.393900 0.305800
vt 0.394700 0.304900
vt 0.394900 0.390700
vt 0.393900 0.398000
vt 0.393900 0.389800
vt 0.386800 0.523100
vt 0.391100 0.276400
vt 0.391100 0.523200
vt 0.411500 0.344900
vt 0.410600 0.368200
vt 0.410600 0.343800
vt 0.402000 0.400700
vt 0.394700 0.401800
vt 0.393900 0.400700
vt 0.393900 0.352800
vt 0.400800 0.352800
vt 0.407400 0.393400
vt 0.407800 0.352800
vt 0.393900 0.408100
vt 0.393900 0.315900
vt 0.400800 0.315900
vt 0.397700 0.389800
vt 0.407800 0.315900
vt 0.400100 0.408100
vt 0.001400 0.905900
vt 0.666000 0.001400
vt 0.652000 0.001400
vt 0.001400 0.979100
vt 0.411500 0.394000
vt 0.418000 0.313100
vt 0.384000 0.523200
vt 0.393900 0.283600
vt 0.410600 0.341100
vt 0.418000 0.276300
vt 0.394900 0.398000
vt 0.386800 0.276300
vt 0.411500 0.369000
vt 0.402000 0.401800
vt 0.377000 0.301700
vt 0.377000 0.530200
vt 0.271000 0.416000
vt 0.340500 0.549200
vt 0.112800 0.437000
vt 0.112800 0.394900
vt 0.340500 0.282700
vt 0.351800 0.278700
vt 0.355900 0.296600
vt 0.362000 0.278800
vt 0.370000 0.283000
vt 0.375200 0.290900
vt 0.103300 0.429500
vt 0.118400 0.416000
vt 0.098300 0.420600
vt 0.098300 0.411300
vt 0.103300 0.402500
vt 0.375200 0.541000
vt 0.355900 0.535300
vt 0.370000 0.548900
vt 0.362000 0.553100
vt 0.351800 0.553200
s 1
usemtl metal
f 44/1/1 57/2/2 41/3/3
f 58/4/4 65/5/5 50/6/6
f 44/7/1 79/8/7 57/9/2
f 58/10/4 50/11/6 41/3/3
f 51/12/8 43/13/9 41/3/3
f 43/13/9 46/14/10 45/15/3
f 46/14/10 47/16/11 45/15/3
f 47/16/11 48/17/12 45/15/3
f 48/17/12 49/18/13 45/15/3
f 49/18/13 44/1/1 45/15/3
f 50/11/6 53/19/14 52/20/3
f 53/19/14 54/21/15 52/20/3
f 54/21/15 55/22/16 52/20/3
f 55/22/16 56/23/17 52/20/3
f 56/23/17 51/12/8 52/20/3
f 57/2/2 60/24/18 59/25/3
f 60/24/18 61/26/19 59/25/3
f 61/26/19 62/27/20 59/25/3
f 62/27/20 63/28/21 59/25/3
f 63/28/21 58/10/4 59/25/3
f 72/29/22 46/30/10 43/31/9
f 46/30/10 76/32/23 47/33/11
f 47/33/11 75/34/24 48/35/12
f 75/34/24 49/36/13 48/35/12
f 74/37/25 44/7/1 49/36/13
f 58/4/4 81/38/26 78/39/27
f 63/40/21 82/41/28 81/38/26
f 62/42/20 83/43/29 82/41/28
f 83/43/29 60/44/18 84/45/30
f 60/44/18 79/8/7 84/45/30
f 51/46/8 67/47/31 64/48/32
f 56/49/17 68/50/33 67/47/31
f 55/51/16 69/52/34 68/50/33
f 54/53/15 70/54/35 69/52/34
f 53/55/14 65/5/5 70/54/35
f 51/46/8 72/29/22 43/31/9
f 59/25/3 41/3/3 57/2/2
f 45/15/3 44/1/1 41/3/3
f 58/4/4 78/39/27 65/5/5
f 44/7/1 71/56/36 79/8/7
f 52/20/3 41/3/3 50/11/6
f 59/25/3 58/10/4 41/3/3
f 45/15/3 41/3/3 43/13/9
f 52/20/3 51/12/8 41/3/3
f 72/29/22 77/57/37 46/30/10
f 46/30/10 77/57/37 76/32/23
f 47/33/11 76/32/23 75/34/24
f 75/34/24 74/37/25 49/36/13
f 74/37/25 71/56/36 44/7/1
f 58/4/4 63/40/21 81/38/26
f 63/40/21 62/42/20 82/41/28
f 62/42/20 61/58/19 83/43/29
f 83/43/29 61/58/19 60/44/18
f 60/44/18 57/9/2 79/8/7
f 51/46/8 56/49/17 67/47/31
f 56/49/17 55/51/16 68/50/33
f 55/51/16 54/53/15 69/52/34
f 54/53/15 53/55/14 70/54/35
f 53/55/14 50/6/6 65/5/5
f 51/46/8 64/48/32 72/29/22
f 1/59/38 4/60/39 3/61/40
f 4/60/39 5/62/41 3/61/40
f 2/63/42 6/64/43 4/65/39
f 8/66/44 1/67/38 7/68/45
f 5/62/41 8/66/44 7/68/45
f 1/69/38 5/70/41 7/71/45
f 9/72/38 12/73/39 11/74/40
f 12/73/39 13/75/41 11/74/40
f 10/76/42 14/77/43 12/78/39
f 16/79/44 9/80/38 15/81/45
f 13/75/41 16/79/44 15/81/45
f 9/82/38 13/83/41 15/84/45
f 27/85/46 20/86/47 21/87/48
f 25/88/49 18/89/50 19/90/51
f 23/91/52 22/92/53 17/93/54
f 26/94/55 19/90/51 20/86/47
f 24/95/56 17/93/54 18/89/50
f 32/96/57 39/97/58 33/98/59
f 30/99/60 37/100/61 31/101/62
f 34/102/63 35/103/64 29/104/65
f 31/101/62 38/105/66 32/106/57
f 29/107/65 36/108/67 30/99/60
f 30/109/60 19/110/51 18/111/50
f 27/112/46 38/113/66 26/114/55
f 40/115/68 22/116/53 28/117/69
f 24/118/56 35/119/64 23/120/52
f 19/121/51 32/122/57 20/123/47
f 35/119/64 28/124/69 23/120/52
f 37/125/61 24/118/56 25/126/49
f 32/127/57 21/128/48 20/129/47
f 33/130/59 27/131/46 21/132/48
f 29/133/65 18/134/50 17/135/54
f 38/113/66 25/126/49 26/114/55
f 22/136/53 29/137/65 17/138/54
f 1/59/38 2/139/42 4/60/39
f 4/60/39 6/140/43 5/62/41
f 2/63/42 8/141/44 6/64/43
f 8/66/44 2/142/42 1/67/38
f 5/62/41 6/140/43 8/66/44
f 1/69/38 3/143/40 5/70/41
f 9/72/38 10/144/42 12/73/39
f 12/73/39 14/145/43 13/75/41
f 10/76/42 16/146/44 14/77/43
f 16/79/44 10/147/42 9/80/38
f 13/75/41 14/145/43 16/79/44
f 9/82/38 11/148/40 13/83/41
f 27/85/46 26/94/55 20/86/47
f 25/88/49 24/95/56 18/89/50
f 23/91/52 28/149/69 22/92/53
f 26/94/55 25/88/49 19/90/51
f 24/95/56 23/91/52 17/93/54
f 32/96/57 38/150/66 39/97/58
f 30/99/60 36/108/67 37/100/61
f 34/102/63 40/151/68 35/103/64
f 31/101/62 37/100/61 38/105/66
f 29/107/65 35/152/64 36/108/67
f 30/109/60 31/153/62 19/110/51
f 27/112/46 39/154/58 38/113/66
f 40/115/68 34/155/63 22/116/53
f 24/118/56 36/156/67 35/119/64
f 19/121/51 31/157/62 32/122/57
f 35/119/64 40/158/68 28/124/69
f 37/125/61 36/156/67 24/118/56
f 32/127/57 33/159/59 21/128/48
f 33/130/59 39/160/58 27/131/46
f 29/133/65 30/161/60 18/134/50
f 38/113/66 37/125/61 25/126/49
f 22/136/53 34/162/63 29/137/65
usemtl sign
f 65/163/5 78/164/27 42/165/70
f 79/166/7 71/167/36 42/165/70
f 72/168/22 64/169/32 42/165/70
f 64/169/32 67/170/31 66/171/70
f 67/170/31 68/172/33 66/171/70
f 68/172/33 69/173/34 66/171/70
f 69/173/34 70/174/35 66/171/70
f 70/174/35 65/163/5 66/171/70
f 71/167/36 74/175/25 73/176/70
f 74/175/25 75/177/24 73/176/70
f 75/177/24 76/178/23 73/176/70
f 76/178/23 77/179/37 73/176/70
f 77/179/37 72/168/22 73/176/70
f 78/164/27 81/180/26 80/181/70
f 81/180/26 82/182/28 80/181/70
f 82/182/28 83/183/29 80/181/70
f 83/183/29 84/184/30 80/181/70
f 84/184/30 79/166/7 80/181/70
f 80/181/70 42/165/70 78/164/27
f 66/171/70 65/163/5 42/165/70
f 73/176/70 42/165/70 71/167/36
f 80/181/70 79/166/7 42/165/70
f 66/171/70 42/165/70 64/169/32
f 73/176/70 72/168/22 42/165/70
